<svg width="48" height="48" viewBox="0 0 48 48" fill="none" xmlns="http://www.w3.org/2000/svg">
  <!-- Nimbus Icon - Favicon size -->
  <rect width="48" height="48" rx="8" fill="#1B5E3A"/>
  
  <!-- Cloud with cannabis leaf -->
  <g transform="translate(12, 12)">
    <!-- Cloud shape -->
    <path d="M12 4C10.34 4 9 5.34 9 7C9 7.17 9.02 7.34 9.06 7.5C7.93 7.52 7 8.47 7 9.6C7 10.76 7.94 11.7 9.1 11.7H14.4C15.83 11.7 17 10.53 17 9.1C17 7.67 15.83 6.5 14.4 6.5C14.4 5.12 13.28 4 11.9 4C11.54 4 11.21 4.08 10.92 4.21C10.63 4.08 10.3 4 9.95 4Z" fill="#F8F8F8"/>
    <!-- Cannabis leaf -->
    <path d="M12 6L11.7 8.5L12 11L12.3 8.5L12 6ZM11 6.6L10.7 8.2L11.3 9.5L11 6.6ZM13 6.6L13.3 8.2L12.7 9.5L13 6.6Z" fill="#A4D96C"/>
  </g>
</svg>
